<svg xmlns="http://www.w3.org/2000/svg" width="960" height="460" viewBox="0 0 960 460">
<rect width="960" height="460" fill="#2D3A40"/>
<text x="936" y="30" text-anchor="end" font-family="sans-serif" font-size="15" fill="#DDE2E4">the microphone, 13:22 - 15:27 UTC</text>
<line x1="124.5" y1="52" x2="124.5" y2="420" stroke="#8C989E" stroke-opacity="0.2"/>
<text x="124.5" y="438" text-anchor="middle" font-family="sans-serif" font-size="10" fill="#BCC5C8">13:30Z</text>
<line x1="326.6" y1="52" x2="326.6" y2="420" stroke="#8C989E" stroke-opacity="0.2"/>
<text x="326.6" y="438" text-anchor="middle" font-family="sans-serif" font-size="10" fill="#BCC5C8">14:00Z</text>
<line x1="528.7" y1="52" x2="528.7" y2="420" stroke="#8C989E" stroke-opacity="0.2"/>
<text x="528.7" y="438" text-anchor="middle" font-family="sans-serif" font-size="10" fill="#BCC5C8">14:30Z</text>
<line x1="730.9" y1="52" x2="730.9" y2="420" stroke="#8C989E" stroke-opacity="0.2"/>
<text x="730.9" y="438" text-anchor="middle" font-family="sans-serif" font-size="10" fill="#BCC5C8">15:00Z</text>
<line x1="70" y1="90" x2="910" y2="90" stroke="#8C989E" stroke-opacity="0.25"/>
<text x="62" y="94" text-anchor="end" font-family="sans-serif" font-size="11" fill="#DDE2E4">acquire</text>
<line x1="70" y1="150" x2="910" y2="150" stroke="#8C989E" stroke-opacity="0.25"/>
<text x="62" y="154" text-anchor="end" font-family="sans-serif" font-size="11" fill="#BCC5C8">yield</text>
<line x1="70" y1="210" x2="910" y2="210" stroke="#8C989E" stroke-opacity="0.25"/>
<text x="62" y="214" text-anchor="end" font-family="sans-serif" font-size="11" fill="#8C989E">deny</text>
<line x1="70" y1="270" x2="910" y2="270" stroke="#8C989E" stroke-opacity="0.25"/>
<text x="62" y="274" text-anchor="end" font-family="sans-serif" font-size="11" fill="#DDE2E4">done</text>
<line x1="70" y1="330" x2="910" y2="330" stroke="#8C989E" stroke-opacity="0.25"/>
<text x="62" y="334" text-anchor="end" font-family="sans-serif" font-size="11" fill="#BCC5C8">progress</text>
<path d="M 81.0 83 L 87.0 95 L 75.0 95 Z" fill="#DDE2E4"/>
<circle cx="90.3" cy="324.8" r="2.2" fill="#BCC5C8" fill-opacity="0.8"/>
<circle cx="98.9" cy="319.6" r="2.2" fill="#BCC5C8" fill-opacity="0.8"/>
<circle cx="109.6" cy="314.4" r="2.2" fill="#BCC5C8" fill-opacity="0.8"/>
<rect x="104.7" y="145" width="10" height="10" fill="#2D3A40" stroke="#BCC5C8" stroke-width="1.6" transform="rotate(45 109.7 150)"/>
<path d="M 110.2 83 L 116.2 95 L 104.2 95 Z" fill="#DDE2E4"/>
<line x1="105.2" y1="205" x2="115.2" y2="215" stroke="#8C989E" stroke-width="1.6"/>
<line x1="105.2" y1="215" x2="115.2" y2="205" stroke="#8C989E" stroke-width="1.6"/>
<line x1="106.6" y1="205" x2="116.6" y2="215" stroke="#8C989E" stroke-width="1.6"/>
<line x1="106.6" y1="215" x2="116.6" y2="205" stroke="#8C989E" stroke-width="1.6"/>
<circle cx="120.0" cy="324.8" r="2.2" fill="#BCC5C8" fill-opacity="0.8"/>
<circle cx="128.9" cy="319.6" r="2.2" fill="#BCC5C8" fill-opacity="0.8"/>
<circle cx="143.6" cy="314.4" r="2.2" fill="#BCC5C8" fill-opacity="0.8"/>
<rect x="138.6" y="145" width="10" height="10" fill="#2D3A40" stroke="#BCC5C8" stroke-width="1.6" transform="rotate(45 143.6 150)"/>
<path d="M 144.1 83 L 150.1 95 L 138.1 95 Z" fill="#DDE2E4"/>
<line x1="139.1" y1="205" x2="149.1" y2="215" stroke="#8C989E" stroke-width="1.6"/>
<line x1="139.1" y1="215" x2="149.1" y2="205" stroke="#8C989E" stroke-width="1.6"/>
<line x1="140.4" y1="205" x2="150.4" y2="215" stroke="#8C989E" stroke-width="1.6"/>
<line x1="140.4" y1="215" x2="150.4" y2="205" stroke="#8C989E" stroke-width="1.6"/>
<circle cx="153.1" cy="324.8" r="2.2" fill="#BCC5C8" fill-opacity="0.8"/>
<circle cx="162.4" cy="319.6" r="2.2" fill="#BCC5C8" fill-opacity="0.8"/>
<circle cx="173.2" cy="314.4" r="2.2" fill="#BCC5C8" fill-opacity="0.8"/>
<rect x="168.2" y="145" width="10" height="10" fill="#2D3A40" stroke="#BCC5C8" stroke-width="1.6" transform="rotate(45 173.2 150)"/>
<line x1="168.8" y1="205" x2="178.8" y2="215" stroke="#8C989E" stroke-width="1.6"/>
<line x1="168.8" y1="215" x2="178.8" y2="205" stroke="#8C989E" stroke-width="1.6"/>
<line x1="169.0" y1="205" x2="179.0" y2="215" stroke="#8C989E" stroke-width="1.6"/>
<line x1="169.0" y1="215" x2="179.0" y2="205" stroke="#8C989E" stroke-width="1.6"/>
<path d="M 174.1 83 L 180.1 95 L 168.1 95 Z" fill="#DDE2E4"/>
<line x1="170.4" y1="205" x2="180.4" y2="215" stroke="#8C989E" stroke-width="1.6"/>
<line x1="170.4" y1="215" x2="180.4" y2="205" stroke="#8C989E" stroke-width="1.6"/>
<circle cx="182.3" cy="324.8" r="2.2" fill="#BCC5C8" fill-opacity="0.8"/>
<circle cx="191.0" cy="319.6" r="2.2" fill="#BCC5C8" fill-opacity="0.8"/>
<circle cx="198.9" cy="314.4" r="2.2" fill="#BCC5C8" fill-opacity="0.8"/>
<rect x="193.9" y="145" width="10" height="10" fill="#2D3A40" stroke="#BCC5C8" stroke-width="1.6" transform="rotate(45 198.9 150)"/>
<path d="M 199.9 83 L 205.9 95 L 193.9 95 Z" fill="#DDE2E4"/>
<line x1="194.9" y1="205" x2="204.9" y2="215" stroke="#8C989E" stroke-width="1.6"/>
<line x1="194.9" y1="215" x2="204.9" y2="205" stroke="#8C989E" stroke-width="1.6"/>
<line x1="197.2" y1="205" x2="207.2" y2="215" stroke="#8C989E" stroke-width="1.6"/>
<line x1="197.2" y1="215" x2="207.2" y2="205" stroke="#8C989E" stroke-width="1.6"/>
<circle cx="209.1" cy="309.2" r="2.2" fill="#BCC5C8" fill-opacity="0.8"/>
<circle cx="219.0" cy="304.0" r="2.2" fill="#BCC5C8" fill-opacity="0.8"/>
<circle cx="229.1" cy="298.8" r="2.2" fill="#BCC5C8" fill-opacity="0.8"/>
<rect x="224.1" y="145" width="10" height="10" fill="#2D3A40" stroke="#BCC5C8" stroke-width="1.6" transform="rotate(45 229.1 150)"/>
<path d="M 230.1 83 L 236.1 95 L 224.1 95 Z" fill="#DDE2E4"/>
<line x1="225.1" y1="205" x2="235.1" y2="215" stroke="#8C989E" stroke-width="1.6"/>
<line x1="225.1" y1="215" x2="235.1" y2="205" stroke="#8C989E" stroke-width="1.6"/>
<line x1="225.1" y1="205" x2="235.1" y2="215" stroke="#8C989E" stroke-width="1.6"/>
<line x1="225.1" y1="215" x2="235.1" y2="205" stroke="#8C989E" stroke-width="1.6"/>
<line x1="226.4" y1="205" x2="236.4" y2="215" stroke="#8C989E" stroke-width="1.6"/>
<line x1="226.4" y1="215" x2="236.4" y2="205" stroke="#8C989E" stroke-width="1.6"/>
<circle cx="238.1" cy="309.2" r="2.2" fill="#BCC5C8" fill-opacity="0.8"/>
<circle cx="247.9" cy="304.0" r="2.2" fill="#BCC5C8" fill-opacity="0.8"/>
<circle cx="258.6" cy="298.8" r="2.2" fill="#BCC5C8" fill-opacity="0.8"/>
<rect x="253.6" y="145" width="10" height="10" fill="#2D3A40" stroke="#BCC5C8" stroke-width="1.6" transform="rotate(45 258.6 150)"/>
<line x1="254.1" y1="205" x2="264.1" y2="215" stroke="#8C989E" stroke-width="1.6"/>
<line x1="254.1" y1="215" x2="264.1" y2="205" stroke="#8C989E" stroke-width="1.6"/>
<path d="M 259.1 83 L 265.1 95 L 253.1 95 Z" fill="#DDE2E4"/>
<line x1="255.4" y1="205" x2="265.4" y2="215" stroke="#8C989E" stroke-width="1.6"/>
<line x1="255.4" y1="215" x2="265.4" y2="205" stroke="#8C989E" stroke-width="1.6"/>
<circle cx="269.5" cy="309.2" r="2.2" fill="#BCC5C8" fill-opacity="0.8"/>
<circle cx="279.7" cy="304.0" r="2.2" fill="#BCC5C8" fill-opacity="0.8"/>
<rect x="283.7" y="145" width="10" height="10" fill="#2D3A40" stroke="#BCC5C8" stroke-width="1.6" transform="rotate(45 288.7 150)"/>
<line x1="284.3" y1="205" x2="294.3" y2="215" stroke="#8C989E" stroke-width="1.6"/>
<line x1="284.3" y1="215" x2="294.3" y2="205" stroke="#8C989E" stroke-width="1.6"/>
<line x1="284.6" y1="205" x2="294.6" y2="215" stroke="#8C989E" stroke-width="1.6"/>
<line x1="284.6" y1="215" x2="294.6" y2="205" stroke="#8C989E" stroke-width="1.6"/>
<path d="M 289.7 83 L 295.7 95 L 283.7 95 Z" fill="#DDE2E4"/>
<circle cx="297.2" cy="309.2" r="2.2" fill="#BCC5C8" fill-opacity="0.8"/>
<circle cx="305.8" cy="304.0" r="2.2" fill="#BCC5C8" fill-opacity="0.8"/>
<circle cx="318.5" cy="298.8" r="2.2" fill="#BCC5C8" fill-opacity="0.8"/>
<rect x="313.5" y="145" width="10" height="10" fill="#2D3A40" stroke="#BCC5C8" stroke-width="1.6" transform="rotate(45 318.5 150)"/>
<path d="M 319.0 83 L 325.0 95 L 313.0 95 Z" fill="#DDE2E4"/>
<line x1="316.7" y1="205" x2="326.7" y2="215" stroke="#8C989E" stroke-width="1.6"/>
<line x1="316.7" y1="215" x2="326.7" y2="205" stroke="#8C989E" stroke-width="1.6"/>
<circle cx="330.1" cy="293.6" r="2.2" fill="#BCC5C8" fill-opacity="0.8"/>
<circle cx="340.3" cy="288.4" r="2.2" fill="#BCC5C8" fill-opacity="0.8"/>
<circle cx="352.2" cy="283.2" r="2.2" fill="#BCC5C8" fill-opacity="0.8"/>
<rect x="347.2" y="145" width="10" height="10" fill="#2D3A40" stroke="#BCC5C8" stroke-width="1.6" transform="rotate(45 352.2 150)"/>
<path d="M 352.8 83 L 358.8 95 L 346.8 95 Z" fill="#DDE2E4"/>
<line x1="347.8" y1="205" x2="357.8" y2="215" stroke="#8C989E" stroke-width="1.6"/>
<line x1="347.8" y1="215" x2="357.8" y2="205" stroke="#8C989E" stroke-width="1.6"/>
<line x1="349.0" y1="205" x2="359.0" y2="215" stroke="#8C989E" stroke-width="1.6"/>
<line x1="349.0" y1="215" x2="359.0" y2="205" stroke="#8C989E" stroke-width="1.6"/>
<circle cx="362.4" cy="293.6" r="2.2" fill="#BCC5C8" fill-opacity="0.8"/>
<circle cx="372.0" cy="288.4" r="2.2" fill="#BCC5C8" fill-opacity="0.8"/>
<circle cx="381.9" cy="283.2" r="2.2" fill="#BCC5C8" fill-opacity="0.8"/>
<rect x="376.9" y="145" width="10" height="10" fill="#2D3A40" stroke="#BCC5C8" stroke-width="1.6" transform="rotate(45 381.9 150)"/>
<line x1="378.5" y1="205" x2="388.5" y2="215" stroke="#8C989E" stroke-width="1.6"/>
<line x1="378.5" y1="215" x2="388.5" y2="205" stroke="#8C989E" stroke-width="1.6"/>
<path d="M 384.0 83 L 390.0 95 L 378.0 95 Z" fill="#DDE2E4"/>
<line x1="380.1" y1="205" x2="390.1" y2="215" stroke="#8C989E" stroke-width="1.6"/>
<line x1="380.1" y1="215" x2="390.1" y2="205" stroke="#8C989E" stroke-width="1.6"/>
<circle cx="392.2" cy="293.6" r="2.2" fill="#BCC5C8" fill-opacity="0.8"/>
<rect x="396.5" y="264" width="12" height="12" fill="#DDE2E4"/>
<path d="M 403.2 83 L 409.2 95 L 397.2 95 Z" fill="#DDE2E4"/>
<line x1="398.3" y1="205" x2="408.3" y2="215" stroke="#8C989E" stroke-width="1.6"/>
<line x1="398.3" y1="215" x2="408.3" y2="205" stroke="#8C989E" stroke-width="1.6"/>
<circle cx="415.2" cy="278.0" r="2.2" fill="#BCC5C8" fill-opacity="0.8"/>
<rect x="420.5" y="264" width="12" height="12" fill="#DDE2E4"/>
<path d="M 427.1 83 L 433.1 95 L 421.1 95 Z" fill="#DDE2E4"/>
<circle cx="438.3" cy="278.0" r="2.2" fill="#BCC5C8" fill-opacity="0.8"/>
<rect x="441.4" y="264" width="12" height="12" fill="#DDE2E4"/>
<rect x="447.3" y="52" width="462.7" height="368" fill="#DDE2E4" fill-opacity="0.06"/>
<text x="678.7" y="414" text-anchor="middle" font-family="sans-serif" font-size="11" fill="#DDE2E4">maps done - idle tail (69 min)</text>
<text x="70" y="456" font-family="sans-serif" font-size="11" fill="#DDE2E4">13 acquires - 10 quantum yields - 22 denials - 4 retirements - 0 errors</text>
</svg>